<?xml version="1.0" encoding="UTF-8" standalone="no"?>
<!DOCTYPE svg PUBLIC "-//W3C//DTD SVG 1.0//EN" "http://www.w3.org/TR/2001/REC-SVG-20010904/DTD/svg10.dtd">
<!-- Generated by Microsoft Visio 11.0, SVG Export, v1.0 tank-ui-icons.svg Page-2 -->
<svg xmlns="http://www.w3.org/2000/svg" xmlns:v="http://schemas.microsoft.com/visio/2003/SVGExtensions/" width="8.26772in"
		height="11.6929in" viewBox="0 0 595.276 841.89" xml:space="preserve" color-interpolation-filters="sRGB" class="st14">
	<v:documentProperties v:langID="1033" v:metric="true" v:viewMarkup="false"/>

	<style type="text/css">
	<![CDATA[
		.st1 {fill:#8c8c8c;stroke:#000000;stroke-linecap:round;stroke-linejoin:round;stroke-width:1.2}
		.st2 {fill:none;stroke:#000000;stroke-linecap:round;stroke-linejoin:round;stroke-width:2.16}
		.st3 {stroke:#000000;stroke-linecap:round;stroke-linejoin:round;stroke-width:1.2}
		.st4 {stroke:#000000;stroke-linecap:butt;stroke-width:4.08}
		.st5 {fill:#bfbfbf;stroke:#000000;stroke-linecap:round;stroke-linejoin:round;stroke-width:1.2}
		.st6 {fill:none;stroke:#000000;stroke-linecap:round;stroke-linejoin:round;stroke-width:3.12}
		.st7 {fill:#ff0000;stroke:#000000;stroke-linecap:round;stroke-linejoin:round;stroke-width:1.2}
		.st8 {fill:url(#grad27-362);stroke:none;stroke-linecap:round;stroke-linejoin:round;stroke-width:0.24}
		.st9 {fill:#ff0000;stroke:none;stroke-linecap:round;stroke-linejoin:round;stroke-width:0.24}
		.st10 {fill:#f28226;stroke:none;stroke-linecap:round;stroke-linejoin:round;stroke-width:0.24}
		.st11 {fill:#ffff00;stroke:none;stroke-linecap:round;stroke-linejoin:round;stroke-width:0.24}
		.st12 {fill:none;stroke:none;stroke-linecap:round;stroke-linejoin:round;stroke-width:1.2}
		.st13 {fill:#ff0000;font-family:Arial;font-size:7.5em;font-weight:bold}
		.st14 {fill:none;fill-rule:evenodd;font-size:12;overflow:visible;stroke-linecap:square;stroke-miterlimit:3}
	]]>
	</style>

	<defs id="Patterns_And_Gradients">
		<linearGradient id="grad27-362" v:fillPattern="27" v:foreground="#bfbfbf" v:background="#ffffff" x1="1" y1="0" x2="0"
				y2="0">
			<stop offset="0" style="stop-color:#bfbfbf;stop-opacity:1"/>
			<stop offset="1" style="stop-color:#ffffff;stop-opacity:1"/>
		</linearGradient>
	</defs>
	<g v:mID="4" v:index="2" v:groupContext="foregroundPage">
		<title>Page-2</title>
		<v:pageProperties v:drawingScale="0.0393701" v:pageScale="0.0393701" v:drawingUnits="24" v:shadowOffsetX="8.50394"
				v:shadowOffsetY="-8.50394"/>
		<v:layer v:name="Connector" v:index="0"/>
		<g id="group2-1" transform="translate(42.5197,-510.945)" v:mID="2" v:groupContext="group">
			<title>Sheet.2</title>
			<g id="group3-2" transform="translate(35.4331,0)" v:mID="3" v:groupContext="group">
				<title>Sheet.3</title>
				<g id="shape4-3" v:mID="4" v:groupContext="shape" transform="translate(7.08661,-1.41732)">
					<title>Circle</title>
					<v:userDefs>
						<v:ud v:nameU="visVersion" v:val="VT0(12):26"/>
					</v:userDefs>
					<path d="M0 836.22 A5.66929 5.66929 0 1 1 11.34 836.22 A5.66929 5.66929 0 0 1 0 836.22 Z" class="st1"/>
				</g>
				<g id="shape5-5" v:mID="5" v:groupContext="shape">
					<title>Circle.5</title>
					<v:userDefs>
						<v:ud v:nameU="visVersion" v:val="VT0(12):26"/>
					</v:userDefs>
					<path d="M0 829.13 A12.7559 12.7559 0 1 1 25.51 829.13 A12.7559 12.7559 0 0 1 -0 829.13 Z" class="st2"/>
				</g>
				<g id="shape6-7" v:mID="6" v:groupContext="shape" transform="translate(38.2677,-1.41732)">
					<title>Circle.6</title>
					<v:userDefs>
						<v:ud v:nameU="visVersion" v:val="VT0(12):26"/>
					</v:userDefs>
					<path d="M0 836.22 A5.66929 5.66929 0 1 1 11.34 836.22 A5.66929 5.66929 0 0 1 0 836.22 Z" class="st1"/>
				</g>
				<g id="shape7-9" v:mID="7" v:groupContext="shape" transform="translate(31.1811,0)">
					<title>Circle.8</title>
					<v:userDefs>
						<v:ud v:nameU="visVersion" v:val="VT0(12):26"/>
					</v:userDefs>
					<path d="M0 829.13 A12.7559 12.7559 0 1 1 25.51 829.13 A12.7559 12.7559 0 0 1 -0 829.13 Z" class="st2"/>
				</g>
			</g>
			<g id="group8-11" transform="translate(0,-12.7559)" v:mID="8" v:groupContext="group">
				<title>Sheet.8</title>
				<g id="shape9-12" v:mID="9" v:groupContext="shape">
					<title>Sheet.9</title>
					<rect x="0" y="639.992" width="127.559" height="201.898" class="st1"/>
				</g>
				<g id="shape10-14" v:mID="10" v:groupContext="shape" transform="translate(1.59872E-014,-196.441)">
					<title>Sheet.10</title>
					<rect x="0" y="820.063" width="127.559" height="21.8268" class="st1"/>
				</g>
				<g id="shape11-16" v:mID="11" v:groupContext="shape">
					<title>Sheet.11</title>
					<rect x="0" y="645.449" width="5.10236" height="196.441" class="st1"/>
				</g>
				<g id="shape12-18" v:mID="12" v:groupContext="shape" transform="translate(122.457,-3.41061E-013)">
					<title>Sheet.12</title>
					<rect x="0" y="645.449" width="5.10236" height="196.441" class="st1"/>
				</g>
			</g>
			<g id="group13-20" transform="translate(82.2047,-51.0236)" v:mID="13" v:groupContext="group">
				<title>Sheet.13</title>
				<g id="shape14-21" v:mID="14" v:groupContext="shape" transform="translate(0,-19.8425)">
					<title>Sheet.14</title>
					<path d="M0 841.89 L34.02 841.89" class="st3"/>
				</g>
				<g id="shape15-24" v:mID="15" v:groupContext="shape" transform="translate(0,-17.0079)">
					<title>Sheet.15</title>
					<path d="M0 841.89 L34.02 841.89" class="st3"/>
				</g>
				<g id="shape16-27" v:mID="16" v:groupContext="shape" transform="translate(0,-14.1732)">
					<title>Sheet.16</title>
					<path d="M0 841.89 L34.02 841.89" class="st3"/>
				</g>
				<g id="shape17-30" v:mID="17" v:groupContext="shape" transform="translate(0,-11.3386)">
					<title>Sheet.17</title>
					<path d="M0 841.89 L34.02 841.89" class="st3"/>
				</g>
				<g id="shape18-33" v:mID="18" v:groupContext="shape" transform="translate(0,-8.50394)">
					<title>Sheet.18</title>
					<path d="M0 841.89 L34.02 841.89" class="st3"/>
				</g>
				<g id="shape19-36" v:mID="19" v:groupContext="shape" transform="translate(0,-5.66929)">
					<title>Sheet.19</title>
					<path d="M0 841.89 L34.02 841.89" class="st3"/>
				</g>
				<g id="shape20-39" v:mID="20" v:groupContext="shape" transform="translate(0,-2.83465)">
					<title>Sheet.20</title>
					<path d="M0 841.89 L34.02 841.89" class="st3"/>
				</g>
				<g id="shape21-42" v:mID="21" v:groupContext="shape">
					<title>Sheet.21</title>
					<path d="M0 841.89 L34.02 841.89" class="st3"/>
				</g>
			</g>
			<g id="group22-45" transform="translate(11.3386,-51.0236)" v:mID="22" v:groupContext="group">
				<title>Sheet.22</title>
				<g id="shape23-46" v:mID="23" v:groupContext="shape" transform="translate(0,-19.8425)">
					<title>Sheet.23</title>
					<path d="M0 841.89 L34.02 841.89" class="st3"/>
				</g>
				<g id="shape24-49" v:mID="24" v:groupContext="shape" transform="translate(0,-17.0079)">
					<title>Sheet.24</title>
					<path d="M0 841.89 L34.02 841.89" class="st3"/>
				</g>
				<g id="shape25-52" v:mID="25" v:groupContext="shape" transform="translate(0,-14.1732)">
					<title>Sheet.25</title>
					<path d="M0 841.89 L34.02 841.89" class="st3"/>
				</g>
				<g id="shape26-55" v:mID="26" v:groupContext="shape" transform="translate(0,-11.3386)">
					<title>Sheet.26</title>
					<path d="M0 841.89 L34.02 841.89" class="st3"/>
				</g>
				<g id="shape27-58" v:mID="27" v:groupContext="shape" transform="translate(0,-8.50394)">
					<title>Sheet.27</title>
					<path d="M0 841.89 L34.02 841.89" class="st3"/>
				</g>
				<g id="shape28-61" v:mID="28" v:groupContext="shape" transform="translate(0,-5.66929)">
					<title>Sheet.28</title>
					<path d="M0 841.89 L34.02 841.89" class="st3"/>
				</g>
				<g id="shape29-64" v:mID="29" v:groupContext="shape" transform="translate(0,-2.83465)">
					<title>Sheet.29</title>
					<path d="M0 841.89 L34.02 841.89" class="st3"/>
				</g>
				<g id="shape30-67" v:mID="30" v:groupContext="shape">
					<title>Sheet.30</title>
					<path d="M0 841.89 L34.02 841.89" class="st3"/>
				</g>
			</g>
			<g id="group31-70" transform="translate(11.3386,-18.4252)" v:mID="31" v:groupContext="group">
				<title>Sheet.31</title>
				<g id="shape32-71" v:mID="32" v:groupContext="shape" transform="translate(0,-19.8425)">
					<title>Sheet.32</title>
					<path d="M0 841.89 L34.02 841.89" class="st3"/>
				</g>
				<g id="shape33-74" v:mID="33" v:groupContext="shape" transform="translate(0,-17.0079)">
					<title>Sheet.33</title>
					<path d="M0 841.89 L34.02 841.89" class="st3"/>
				</g>
				<g id="shape34-77" v:mID="34" v:groupContext="shape" transform="translate(0,-14.1732)">
					<title>Sheet.34</title>
					<path d="M0 841.89 L34.02 841.89" class="st3"/>
				</g>
				<g id="shape35-80" v:mID="35" v:groupContext="shape" transform="translate(0,-11.3386)">
					<title>Sheet.35</title>
					<path d="M0 841.89 L34.02 841.89" class="st3"/>
				</g>
				<g id="shape36-83" v:mID="36" v:groupContext="shape" transform="translate(0,-8.50394)">
					<title>Sheet.36</title>
					<path d="M0 841.89 L34.02 841.89" class="st3"/>
				</g>
				<g id="shape37-86" v:mID="37" v:groupContext="shape" transform="translate(0,-5.66929)">
					<title>Sheet.37</title>
					<path d="M0 841.89 L34.02 841.89" class="st3"/>
				</g>
				<g id="shape38-89" v:mID="38" v:groupContext="shape" transform="translate(0,-2.83465)">
					<title>Sheet.38</title>
					<path d="M0 841.89 L34.02 841.89" class="st3"/>
				</g>
				<g id="shape39-92" v:mID="39" v:groupContext="shape">
					<title>Sheet.39</title>
					<path d="M0 841.89 L34.02 841.89" class="st3"/>
				</g>
			</g>
			<g id="group40-95" transform="translate(82.2047,-18.4252)" v:mID="40" v:groupContext="group">
				<title>Sheet.40</title>
				<g id="shape41-96" v:mID="41" v:groupContext="shape" transform="translate(0,-19.8425)">
					<title>Sheet.41</title>
					<path d="M0 841.89 L34.02 841.89" class="st3"/>
				</g>
				<g id="shape42-99" v:mID="42" v:groupContext="shape" transform="translate(0,-17.0079)">
					<title>Sheet.42</title>
					<path d="M0 841.89 L34.02 841.89" class="st3"/>
				</g>
				<g id="shape43-102" v:mID="43" v:groupContext="shape" transform="translate(0,-14.1732)">
					<title>Sheet.43</title>
					<path d="M0 841.89 L34.02 841.89" class="st3"/>
				</g>
				<g id="shape44-105" v:mID="44" v:groupContext="shape" transform="translate(0,-11.3386)">
					<title>Sheet.44</title>
					<path d="M0 841.89 L34.02 841.89" class="st3"/>
				</g>
				<g id="shape45-108" v:mID="45" v:groupContext="shape" transform="translate(0,-8.50394)">
					<title>Sheet.45</title>
					<path d="M0 841.89 L34.02 841.89" class="st3"/>
				</g>
				<g id="shape46-111" v:mID="46" v:groupContext="shape" transform="translate(0,-5.66929)">
					<title>Sheet.46</title>
					<path d="M0 841.89 L34.02 841.89" class="st3"/>
				</g>
				<g id="shape47-114" v:mID="47" v:groupContext="shape" transform="translate(0,-2.83465)">
					<title>Sheet.47</title>
					<path d="M0 841.89 L34.02 841.89" class="st3"/>
				</g>
				<g id="shape48-117" v:mID="48" v:groupContext="shape">
					<title>Sheet.48</title>
					<path d="M0 841.89 L34.02 841.89" class="st3"/>
				</g>
			</g>
			<g id="group49-120" transform="translate(79.3701,-12.7559) scale(-1,1)" v:mID="49" v:groupContext="group">
				<title>Sheet.49</title>
				<g id="shape50-121" v:mID="50" v:groupContext="shape" transform="translate(836.104,946.28) rotate(99.4623)">
					<title>Sheet.50</title>
					<path d="M0 841.89 L34.48 841.89" class="st4"/>
				</g>
				<g id="shape51-124" v:mID="51" v:groupContext="shape" transform="translate(844.767,921.266) rotate(98.1301)">
					<title>Sheet.51</title>
					<path d="M0 841.89 L40.09 841.89" class="st4"/>
				</g>
			</g>
			<g id="group52-127" transform="translate(48.189,-12.7559)" v:mID="52" v:groupContext="group">
				<title>Sheet.52</title>
				<g id="shape53-128" v:mID="53" v:groupContext="shape" transform="translate(836.104,946.28) rotate(99.4623)">
					<title>Sheet.53</title>
					<path d="M0 841.89 L34.48 841.89" class="st4"/>
				</g>
				<g id="shape54-131" v:mID="54" v:groupContext="shape" transform="translate(844.767,921.266) rotate(98.1301)">
					<title>Sheet.54</title>
					<path d="M0 841.89 L40.09 841.89" class="st4"/>
				</g>
			</g>
			<g id="group55-134" transform="translate(18.4252,-63.053)" v:mID="55" v:groupContext="group">
				<title>Sheet.55</title>
				<g id="shape56-135" v:mID="56" v:groupContext="shape" transform="translate(777.817,1208.04) rotate(119.539)">
					<title>Partial layer 2</title>
					<v:userDefs>
						<v:ud v:nameU="ControlX" v:val="VT0(0.28507636415617):24"/>
						<v:ud v:nameU="Scale" v:val="VT0(1):26"/>
						<v:ud v:nameU="AntiScale" v:val="VT0(1):26"/>
						<v:ud v:nameU="visVersion" v:val="VT0(12):26"/>
					</v:userDefs>
					<path d="M20.53 841.89 L48.87 841.89 A48.59 48.59 -180 0 0 24.59 799.65 L10.33 824.15 A20.4071 20.4071 0 0 1
								 20.53 841.89 Z" class="st5"/>
				</g>
				<g id="group57-137" transform="translate(1.59872E-014,-16.8841)" v:mID="57" v:groupContext="group">
					<title>Sheet.57</title>
					<g id="shape58-138" v:mID="58" v:groupContext="shape">
						<title>Sheet.58</title>
						<path d="M85.04 745.51 L5.67 745.51 L0 792.28 L0.2 792.28 A45.3543 45.3543 -180 0 0 0 796.54 A45.3543 45.3543
									 -180 1 0 90.71 796.54 A45.3543 45.3543 -180 0 0 90.51 792.28 L90.71 792.28 L85.04 745.51 Z"
								class="st5"/>
					</g>
					<g id="shape59-140" v:mID="59" v:groupContext="shape" transform="translate(5.66929,-96.378)">
						<title>Sheet.59</title>
						<rect x="0" y="836.22" width="79.3701" height="5.66929" class="st5"/>
					</g>
					<g id="shape60-142" v:mID="60" v:groupContext="shape" transform="translate(31.1811,-102.047)">
						<title>Sheet.60</title>
						<rect x="0" y="839.055" width="28.3465" height="2.83465" class="st5"/>
					</g>
					<g id="shape61-144" v:mID="61" v:groupContext="shape" transform="translate(39.685,-104.882)">
						<title>Sheet.61</title>
						<rect x="0" y="813.543" width="11.3386" height="28.3465" class="st5"/>
					</g>
					<g id="shape62-146" v:mID="62" v:groupContext="shape" transform="translate(41.1024,-133.228)">
						<title>Sheet.62</title>
						<rect x="0" y="819.213" width="8.50394" height="22.6772" class="st5"/>
					</g>
					<g id="shape63-148" v:mID="63" v:groupContext="shape" transform="translate(40.4446,-155.906)">
						<title>Sheet.63</title>
						<path d="M2.08 841.89 L7.74 841.89 L7.74 776.04 L9.82 772.44 L7.74 772.44 L7.74 767.34 L2.08 767.34 L2.08
									 772.44 L0 772.44 L2.08 776.04 L2.08 841.89 Z" class="st5"/>
					</g>
				</g>
				<g id="shape64-150" v:mID="64" v:groupContext="shape" transform="translate(12.7559,-46.0809)">
					<title>Circle</title>
					<v:userDefs>
						<v:ud v:nameU="visVersion" v:val="VT0(12):26"/>
					</v:userDefs>
					<path d="M0 827.72 A14.1732 14.1732 0 0 1 28.35 827.72 A14.1732 14.1732 0 1 1 0 827.72 Z" class="st5"/>
				</g>
				<g id="shape65-152" v:mID="65" v:groupContext="shape" transform="translate(59.5276,-59.5455)">
					<title>Rectangle</title>
					<v:userDefs>
						<v:ud v:nameU="visVersion" v:val="VT0(12):26"/>
					</v:userDefs>
					<rect x="0" y="827.008" width="19.8425" height="14.8819" class="st5"/>
				</g>
			</g>
		</g>
		<g id="shape66-154" v:mID="66" v:groupContext="shape" transform="translate(14.1732,-496.063)">
			<title>Sheet.66</title>
			<rect x="0" y="501.732" width="340.157" height="340.157" class="st6"/>
		</g>
		<g id="shape67-156" v:mID="67" v:groupContext="shape" transform="translate(-507.402,317.48) rotate(-90)">
			<title>45 degree single</title>
			<v:userDefs>
				<v:ud v:nameU="visVersion" v:val="VT0(12):26"/>
			</v:userDefs>
			<path d="M0 776.69 L65.2 711.5 L65.2 754.53 L283.46 754.53 L283.46 798.86 L65.2 798.86 L65.2 841.89 L0 776.69 Z"
					class="st7"/>
		</g>
		<g id="shape68-158" v:mID="68" v:groupContext="shape" transform="translate(508.389,1124) rotate(-30) scale(1,-1)">
			<title>Curved arrow</title>
			<v:userDefs>
				<v:ud v:nameU="visVersion" v:val="VT0(12):26"/>
			</v:userDefs>
			<path d="M-47.12 821.64 A249.908 249.908 -180 0 0 166.57 701.31 L183.89 711.81 L159.76 673.5 L114.63 669.81 L131.94 680.31
						 A209.407 209.407 0 0 1 -47.12 781.14 L-47.12 821.64 Z" class="st7"/>
		</g>
		<g id="group69-160" transform="translate(120.472,-155.906)" v:mID="69" v:groupContext="group">
			<title>Sheet.69</title>
			<g id="group70-161" transform="translate(35.4331,0)" v:mID="70" v:groupContext="group">
				<title>Sheet.70</title>
				<g id="shape71-162" v:mID="71" v:groupContext="shape" transform="translate(7.08661,-1.41732)">
					<title>Circle</title>
					<v:userDefs>
						<v:ud v:nameU="visVersion" v:val="VT0(12):26"/>
					</v:userDefs>
					<path d="M0 836.22 A5.66929 5.66929 0 1 1 11.34 836.22 A5.66929 5.66929 0 0 1 0 836.22 Z" class="st1"/>
				</g>
				<g id="shape72-164" v:mID="72" v:groupContext="shape">
					<title>Circle.6</title>
					<v:userDefs>
						<v:ud v:nameU="visVersion" v:val="VT0(12):26"/>
					</v:userDefs>
					<path d="M0 829.13 A12.7559 12.7559 0 1 1 25.51 829.13 A12.7559 12.7559 0 0 1 -0 829.13 Z" class="st2"/>
				</g>
				<g id="shape73-166" v:mID="73" v:groupContext="shape" transform="translate(38.2677,-1.41732)">
					<title>Circle.7</title>
					<v:userDefs>
						<v:ud v:nameU="visVersion" v:val="VT0(12):26"/>
					</v:userDefs>
					<path d="M0 836.22 A5.66929 5.66929 0 1 1 11.34 836.22 A5.66929 5.66929 0 0 1 0 836.22 Z" class="st1"/>
				</g>
				<g id="shape74-168" v:mID="74" v:groupContext="shape" transform="translate(31.1811,0)">
					<title>Circle.8</title>
					<v:userDefs>
						<v:ud v:nameU="visVersion" v:val="VT0(12):26"/>
					</v:userDefs>
					<path d="M0 829.13 A12.7559 12.7559 0 1 1 25.51 829.13 A12.7559 12.7559 0 0 1 -0 829.13 Z" class="st2"/>
				</g>
			</g>
			<g id="group75-170" transform="translate(0,-12.7559)" v:mID="75" v:groupContext="group">
				<title>Sheet.75</title>
				<g id="shape76-171" v:mID="76" v:groupContext="shape">
					<title>Sheet.76</title>
					<rect x="0" y="639.992" width="127.559" height="201.898" class="st1"/>
				</g>
				<g id="shape77-173" v:mID="77" v:groupContext="shape" transform="translate(1.59872E-014,-196.441)">
					<title>Sheet.77</title>
					<rect x="0" y="820.063" width="127.559" height="21.8268" class="st1"/>
				</g>
				<g id="shape78-175" v:mID="78" v:groupContext="shape">
					<title>Sheet.78</title>
					<rect x="0" y="645.449" width="5.10236" height="196.441" class="st1"/>
				</g>
				<g id="shape79-177" v:mID="79" v:groupContext="shape" transform="translate(122.457,-3.41061E-013)">
					<title>Sheet.79</title>
					<rect x="0" y="645.449" width="5.10236" height="196.441" class="st1"/>
				</g>
			</g>
			<g id="group80-179" transform="translate(82.2047,-51.0236)" v:mID="80" v:groupContext="group">
				<title>Sheet.80</title>
				<g id="shape81-180" v:mID="81" v:groupContext="shape" transform="translate(0,-19.8425)">
					<title>Sheet.81</title>
					<path d="M0 841.89 L34.02 841.89" class="st3"/>
				</g>
				<g id="shape82-183" v:mID="82" v:groupContext="shape" transform="translate(0,-17.0079)">
					<title>Sheet.82</title>
					<path d="M0 841.89 L34.02 841.89" class="st3"/>
				</g>
				<g id="shape83-186" v:mID="83" v:groupContext="shape" transform="translate(0,-14.1732)">
					<title>Sheet.83</title>
					<path d="M0 841.89 L34.02 841.89" class="st3"/>
				</g>
				<g id="shape84-189" v:mID="84" v:groupContext="shape" transform="translate(0,-11.3386)">
					<title>Sheet.84</title>
					<path d="M0 841.89 L34.02 841.89" class="st3"/>
				</g>
				<g id="shape85-192" v:mID="85" v:groupContext="shape" transform="translate(0,-8.50394)">
					<title>Sheet.85</title>
					<path d="M0 841.89 L34.02 841.89" class="st3"/>
				</g>
				<g id="shape86-195" v:mID="86" v:groupContext="shape" transform="translate(0,-5.66929)">
					<title>Sheet.86</title>
					<path d="M0 841.89 L34.02 841.89" class="st3"/>
				</g>
				<g id="shape87-198" v:mID="87" v:groupContext="shape" transform="translate(0,-2.83465)">
					<title>Sheet.87</title>
					<path d="M0 841.89 L34.02 841.89" class="st3"/>
				</g>
				<g id="shape88-201" v:mID="88" v:groupContext="shape">
					<title>Sheet.88</title>
					<path d="M0 841.89 L34.02 841.89" class="st3"/>
				</g>
			</g>
			<g id="group89-204" transform="translate(11.3386,-51.0236)" v:mID="89" v:groupContext="group">
				<title>Sheet.89</title>
				<g id="shape90-205" v:mID="90" v:groupContext="shape" transform="translate(0,-19.8425)">
					<title>Sheet.90</title>
					<path d="M0 841.89 L34.02 841.89" class="st3"/>
				</g>
				<g id="shape91-208" v:mID="91" v:groupContext="shape" transform="translate(0,-17.0079)">
					<title>Sheet.91</title>
					<path d="M0 841.89 L34.02 841.89" class="st3"/>
				</g>
				<g id="shape92-211" v:mID="92" v:groupContext="shape" transform="translate(0,-14.1732)">
					<title>Sheet.92</title>
					<path d="M0 841.89 L34.02 841.89" class="st3"/>
				</g>
				<g id="shape93-214" v:mID="93" v:groupContext="shape" transform="translate(0,-11.3386)">
					<title>Sheet.93</title>
					<path d="M0 841.89 L34.02 841.89" class="st3"/>
				</g>
				<g id="shape94-217" v:mID="94" v:groupContext="shape" transform="translate(0,-8.50394)">
					<title>Sheet.94</title>
					<path d="M0 841.89 L34.02 841.89" class="st3"/>
				</g>
				<g id="shape95-220" v:mID="95" v:groupContext="shape" transform="translate(0,-5.66929)">
					<title>Sheet.95</title>
					<path d="M0 841.89 L34.02 841.89" class="st3"/>
				</g>
				<g id="shape96-223" v:mID="96" v:groupContext="shape" transform="translate(0,-2.83465)">
					<title>Sheet.96</title>
					<path d="M0 841.89 L34.02 841.89" class="st3"/>
				</g>
				<g id="shape97-226" v:mID="97" v:groupContext="shape">
					<title>Sheet.97</title>
					<path d="M0 841.89 L34.02 841.89" class="st3"/>
				</g>
			</g>
			<g id="group98-229" transform="translate(11.3386,-18.4252)" v:mID="98" v:groupContext="group">
				<title>Sheet.98</title>
				<g id="shape99-230" v:mID="99" v:groupContext="shape" transform="translate(0,-19.8425)">
					<title>Sheet.99</title>
					<path d="M0 841.89 L34.02 841.89" class="st3"/>
				</g>
				<g id="shape100-233" v:mID="100" v:groupContext="shape" transform="translate(0,-17.0079)">
					<title>Sheet.100</title>
					<path d="M0 841.89 L34.02 841.89" class="st3"/>
				</g>
				<g id="shape101-236" v:mID="101" v:groupContext="shape" transform="translate(0,-14.1732)">
					<title>Sheet.101</title>
					<path d="M0 841.89 L34.02 841.89" class="st3"/>
				</g>
				<g id="shape102-239" v:mID="102" v:groupContext="shape" transform="translate(0,-11.3386)">
					<title>Sheet.102</title>
					<path d="M0 841.89 L34.02 841.89" class="st3"/>
				</g>
				<g id="shape103-242" v:mID="103" v:groupContext="shape" transform="translate(0,-8.50394)">
					<title>Sheet.103</title>
					<path d="M0 841.89 L34.02 841.89" class="st3"/>
				</g>
				<g id="shape104-245" v:mID="104" v:groupContext="shape" transform="translate(0,-5.66929)">
					<title>Sheet.104</title>
					<path d="M0 841.89 L34.02 841.89" class="st3"/>
				</g>
				<g id="shape105-248" v:mID="105" v:groupContext="shape" transform="translate(0,-2.83465)">
					<title>Sheet.105</title>
					<path d="M0 841.89 L34.02 841.89" class="st3"/>
				</g>
				<g id="shape106-251" v:mID="106" v:groupContext="shape">
					<title>Sheet.106</title>
					<path d="M0 841.89 L34.02 841.89" class="st3"/>
				</g>
			</g>
			<g id="group107-254" transform="translate(82.2047,-18.4252)" v:mID="107" v:groupContext="group">
				<title>Sheet.107</title>
				<g id="shape108-255" v:mID="108" v:groupContext="shape" transform="translate(0,-19.8425)">
					<title>Sheet.108</title>
					<path d="M0 841.89 L34.02 841.89" class="st3"/>
				</g>
				<g id="shape109-258" v:mID="109" v:groupContext="shape" transform="translate(0,-17.0079)">
					<title>Sheet.109</title>
					<path d="M0 841.89 L34.02 841.89" class="st3"/>
				</g>
				<g id="shape110-261" v:mID="110" v:groupContext="shape" transform="translate(0,-14.1732)">
					<title>Sheet.110</title>
					<path d="M0 841.89 L34.02 841.89" class="st3"/>
				</g>
				<g id="shape111-264" v:mID="111" v:groupContext="shape" transform="translate(0,-11.3386)">
					<title>Sheet.111</title>
					<path d="M0 841.89 L34.02 841.89" class="st3"/>
				</g>
				<g id="shape112-267" v:mID="112" v:groupContext="shape" transform="translate(0,-8.50394)">
					<title>Sheet.112</title>
					<path d="M0 841.89 L34.02 841.89" class="st3"/>
				</g>
				<g id="shape113-270" v:mID="113" v:groupContext="shape" transform="translate(0,-5.66929)">
					<title>Sheet.113</title>
					<path d="M0 841.89 L34.02 841.89" class="st3"/>
				</g>
				<g id="shape114-273" v:mID="114" v:groupContext="shape" transform="translate(0,-2.83465)">
					<title>Sheet.114</title>
					<path d="M0 841.89 L34.02 841.89" class="st3"/>
				</g>
				<g id="shape115-276" v:mID="115" v:groupContext="shape">
					<title>Sheet.115</title>
					<path d="M0 841.89 L34.02 841.89" class="st3"/>
				</g>
			</g>
			<g id="group116-279" transform="translate(79.3701,-12.7559) scale(-1,1)" v:mID="116" v:groupContext="group">
				<title>Sheet.116</title>
				<g id="shape117-280" v:mID="117" v:groupContext="shape" transform="translate(836.104,946.28) rotate(99.4623)">
					<title>Sheet.117</title>
					<path d="M0 841.89 L34.48 841.89" class="st4"/>
				</g>
				<g id="shape118-283" v:mID="118" v:groupContext="shape" transform="translate(844.767,921.266) rotate(98.1301)">
					<title>Sheet.118</title>
					<path d="M0 841.89 L40.09 841.89" class="st4"/>
				</g>
			</g>
			<g id="group119-286" transform="translate(48.189,-12.7559)" v:mID="119" v:groupContext="group">
				<title>Sheet.119</title>
				<g id="shape120-287" v:mID="120" v:groupContext="shape" transform="translate(836.104,946.28) rotate(99.4623)">
					<title>Sheet.120</title>
					<path d="M0 841.89 L34.48 841.89" class="st4"/>
				</g>
				<g id="shape121-290" v:mID="121" v:groupContext="shape" transform="translate(844.767,921.266) rotate(98.1301)">
					<title>Sheet.121</title>
					<path d="M0 841.89 L40.09 841.89" class="st4"/>
				</g>
			</g>
			<g id="group122-293" transform="translate(18.4252,-63.053)" v:mID="122" v:groupContext="group">
				<title>Sheet.122</title>
				<g id="shape123-294" v:mID="123" v:groupContext="shape" transform="translate(777.817,1208.04) rotate(119.539)">
					<title>Partial layer 2</title>
					<v:userDefs>
						<v:ud v:nameU="ControlX" v:val="VT0(0.28507636415617):24"/>
						<v:ud v:nameU="Scale" v:val="VT0(1):26"/>
						<v:ud v:nameU="AntiScale" v:val="VT0(1):26"/>
						<v:ud v:nameU="visVersion" v:val="VT0(12):26"/>
					</v:userDefs>
					<path d="M20.53 841.89 L48.87 841.89 A48.59 48.59 -180 0 0 24.59 799.65 L10.33 824.15 A20.4071 20.4071 0 0 1
								 20.53 841.89 Z" class="st5"/>
				</g>
				<g id="group124-296" transform="translate(1.59872E-014,-16.8841)" v:mID="124" v:groupContext="group">
					<title>Sheet.124</title>
					<g id="shape125-297" v:mID="125" v:groupContext="shape">
						<title>Sheet.125</title>
						<path d="M85.04 745.51 L5.67 745.51 L0 792.28 L0.2 792.28 A45.3543 45.3543 -180 0 0 0 796.54 A45.3543 45.3543
									 -180 1 0 90.71 796.54 A45.3543 45.3543 -180 0 0 90.51 792.28 L90.71 792.28 L85.04 745.51 Z"
								class="st5"/>
					</g>
					<g id="shape126-299" v:mID="126" v:groupContext="shape" transform="translate(5.66929,-96.378)">
						<title>Sheet.126</title>
						<rect x="0" y="836.22" width="79.3701" height="5.66929" class="st5"/>
					</g>
					<g id="shape127-301" v:mID="127" v:groupContext="shape" transform="translate(31.1811,-102.047)">
						<title>Sheet.127</title>
						<rect x="0" y="839.055" width="28.3465" height="2.83465" class="st5"/>
					</g>
					<g id="shape128-303" v:mID="128" v:groupContext="shape" transform="translate(39.685,-104.882)">
						<title>Sheet.128</title>
						<rect x="0" y="813.543" width="11.3386" height="28.3465" class="st5"/>
					</g>
					<g id="shape129-305" v:mID="129" v:groupContext="shape" transform="translate(41.1024,-133.228)">
						<title>Sheet.129</title>
						<rect x="0" y="819.213" width="8.50394" height="22.6772" class="st5"/>
					</g>
					<g id="shape130-307" v:mID="130" v:groupContext="shape" transform="translate(40.4446,-155.906)">
						<title>Sheet.130</title>
						<path d="M2.08 841.89 L7.74 841.89 L7.74 776.04 L9.82 772.44 L7.74 772.44 L7.74 767.34 L2.08 767.34 L2.08
									 772.44 L0 772.44 L2.08 776.04 L2.08 841.89 Z" class="st5"/>
					</g>
				</g>
				<g id="shape131-309" v:mID="131" v:groupContext="shape" transform="translate(12.7559,-46.0809)">
					<title>Circle</title>
					<v:userDefs>
						<v:ud v:nameU="visVersion" v:val="VT0(12):26"/>
					</v:userDefs>
					<path d="M0 827.72 A14.1732 14.1732 0 0 1 28.35 827.72 A14.1732 14.1732 0 1 1 0 827.72 Z" class="st5"/>
				</g>
				<g id="shape132-311" v:mID="132" v:groupContext="shape" transform="translate(59.5276,-59.5455)">
					<title>Rectangle</title>
					<v:userDefs>
						<v:ud v:nameU="visVersion" v:val="VT0(12):26"/>
					</v:userDefs>
					<rect x="0" y="827.008" width="19.8425" height="14.8819" class="st5"/>
				</g>
			</g>
		</g>
		<g id="shape133-313" v:mID="133" v:groupContext="shape" transform="translate(14.1732,-141.732)">
			<title>Sheet.133</title>
			<rect x="0" y="501.732" width="340.157" height="340.157" class="st6"/>
		</g>
		<g id="shape134-315" v:mID="134" v:groupContext="shape" transform="translate(214.445,787.152) rotate(-150)">
			<title>Curved arrow.134</title>
			<v:userDefs>
				<v:ud v:nameU="visVersion" v:val="VT0(12):26"/>
			</v:userDefs>
			<path d="M-47.12 821.64 A249.908 249.908 -180 0 0 166.57 701.31 L183.89 711.81 L159.76 673.5 L114.63 669.81 L131.94 680.31
						 A209.407 209.407 0 0 1 -47.12 781.14 L-47.12 821.64 Z" class="st7"/>
		</g>
		<g id="group135-317" transform="translate(482.598,-513.486)" v:mID="135" v:groupContext="group">
			<title>Sheet.135</title>
			<g id="shape136-318" v:mID="136" v:groupContext="shape" transform="translate(788.447,1196.57) rotate(119.539)">
				<title>Partial layer 2</title>
				<v:userDefs>
					<v:ud v:nameU="ControlX" v:val="VT0(0.44416475905252):24"/>
					<v:ud v:nameU="Scale" v:val="VT0(1):26"/>
					<v:ud v:nameU="AntiScale" v:val="VT0(1):26"/>
					<v:ud v:nameU="visVersion" v:val="VT0(12):26"/>
				</v:userDefs>
				<path d="M31.98 841.89 L60.33 841.89 A60.9144 60.9144 -180 0 0 35.2 792.9 L18.66 815.92 A32.2916 32.2916 0 0 1 31.98
							 841.89 Z" class="st5"/>
			</g>
			<g id="group137-320" transform="translate(1.59872E-014,-20.8413)" v:mID="137" v:groupContext="group">
				<title>Sheet.137</title>
				<g id="shape138-321" v:mID="138" v:groupContext="shape">
					<title>Sheet.138</title>
					<path d="M104.97 722.92 L7 722.92 L0 780.66 L0.25 780.66 A55.9843 55.9843 -180 0 0 0 785.91 A55.9843 55.9843
								 -180 1 0 111.97 785.91 A55.9843 55.9843 -180 0 0 111.72 780.66 L111.97 780.66 L104.97 722.92 Z"
							class="st5"/>
				</g>
				<g id="shape139-323" v:mID="139" v:groupContext="shape" transform="translate(6.99803,-118.967)">
					<title>Sheet.139</title>
					<rect x="0" y="834.892" width="97.9724" height="6.99803" class="st5"/>
				</g>
				<g id="shape140-325" v:mID="140" v:groupContext="shape" transform="translate(38.4892,-125.965)">
					<title>Sheet.140</title>
					<rect x="0" y="838.391" width="34.9902" height="3.49902" class="st5"/>
				</g>
				<g id="shape141-327" v:mID="141" v:groupContext="shape" transform="translate(48.9862,-129.464)">
					<title>Sheet.141</title>
					<rect x="0" y="806.9" width="13.9961" height="34.9902" class="st5"/>
				</g>
				<g id="shape142-329" v:mID="142" v:groupContext="shape" transform="translate(50.7357,-164.454)">
					<title>Sheet.142</title>
					<rect x="0" y="813.898" width="10.497" height="27.9921" class="st5"/>
				</g>
				<g id="shape143-331" v:mID="143" v:groupContext="shape" transform="translate(49.9238,-192.446)">
					<title>Sheet.143</title>
					<path d="M2.56 841.89 L9.56 841.89 L9.56 760.6 L12.12 756.16 L9.56 756.16 L9.56 749.87 L2.56 749.87 L2.56 756.16
								 L0 756.16 L2.56 760.6 L2.56 841.89 Z" class="st5"/>
				</g>
			</g>
			<g id="shape144-333" v:mID="144" v:groupContext="shape" transform="translate(15.7456,-56.8811)">
				<title>Circle</title>
				<v:userDefs>
					<v:ud v:nameU="visVersion" v:val="VT0(12):26"/>
				</v:userDefs>
				<path d="M0 824.39 A17.4951 17.4951 0 0 1 34.99 824.39 A17.4951 17.4951 0 1 1 0 824.39 Z" class="st5"/>
			</g>
			<g id="shape145-335" v:mID="145" v:groupContext="shape" transform="translate(73.4793,-73.5014)">
				<title>Rectangle</title>
				<v:userDefs>
					<v:ud v:nameU="visVersion" v:val="VT0(12):26"/>
				</v:userDefs>
				<rect x="0" y="823.52" width="24.4931" height="18.3698" class="st5"/>
			</g>
		</g>
		<g id="shape146-337" v:mID="146" v:groupContext="shape" transform="translate(368.504,-496.063)">
			<title>Sheet.146</title>
			<rect x="0" y="501.732" width="340.157" height="340.157" class="st6"/>
		</g>
		<g id="shape148-339" v:mID="148" v:groupContext="shape" transform="translate(368.504,-140.031)">
			<title>Sheet.148</title>
			<rect x="0" y="501.732" width="340.157" height="340.157" class="st6"/>
		</g>
		<g id="group149-341" transform="translate(385.512,-261.403)" v:mID="149" v:groupContext="group">
			<title>Sheet.149</title>
			<g id="group150-342" transform="translate(93.0177,-9.07881)" v:mID="150" v:groupContext="group">
				<title>Sheet.150</title>
				<g id="shape151-343" v:mID="151" v:groupContext="shape" v:layerMember="0" transform="translate(-1.28034,-11.5972)">
					<title>Dynamic connector</title>
					<path d="M7.09 834.8 L0 834.8 L7.09 834.8" class="st3"/>
				</g>
				<g id="shape152-346" v:mID="152" v:groupContext="shape" transform="translate(-207.11,28.5903) rotate(-15)">
					<title>Rectangle.3</title>
					<v:userDefs>
						<v:ud v:nameU="visVersion" v:val="VT0(12):26"/>
					</v:userDefs>
					<rect x="0" y="803.403" width="2.73533" height="38.4864" class="st5"/>
				</g>
				<g id="group153-348" transform="translate(818.705,593.192) rotate(75)" v:mID="153" v:groupContext="group">
					<title>Sheet.153</title>
					<g id="shape154-349" v:mID="154" v:groupContext="shape">
						<title>Sheet.154</title>
						<rect x="0" y="794.164" width="20.1452" height="47.7259" class="st5"/>
					</g>
					<g id="shape155-351" v:mID="155" v:groupContext="shape" transform="translate(2.51815,-47.7259)">
						<title>Sheet.155</title>
						<rect x="0" y="803.709" width="15.1089" height="38.1807" class="st5"/>
					</g>
					<g id="shape156-353" v:mID="156" v:groupContext="shape" transform="translate(1.34947,-85.9065)">
						<title>Sheet.156</title>
						<path d="M3.69 841.89 L13.76 841.89 L13.76 731.01 L17.45 724.96 L13.76 724.96 L13.76 716.37 L3.69 716.37
									 L3.69 724.96 L0 724.96 L3.69 731.01 L3.69 841.89 Z" class="st5"/>
					</g>
				</g>
				<g id="shape157-355" v:mID="157" v:groupContext="shape" transform="translate(-210.857,24.6165) rotate(-15)">
					<title>Rectangle.5</title>
					<v:userDefs>
						<v:ud v:nameU="visVersion" v:val="VT0(12):26"/>
					</v:userDefs>
					<rect x="0" y="813.875" width="2.73533" height="28.0147" class="st5"/>
				</g>
			</g>
			<g id="shape158-357" v:mID="158" v:groupContext="shape" transform="translate(4.02818,1.13687E-013)">
				<title>Sheet.158</title>
				<path d="M0 841.89 L24.35 841.89 L89.49 837.35 L94.44 814.65 L89.49 791.96 L23.52 787.42 L0 787.42 L0 841.89 Z"
						class="st5"/>
			</g>
			<g id="shape159-359" v:mID="159" v:groupContext="shape" transform="translate(1.39888E-014,-0.799477)">
				<title>Rectangle</title>
				<v:userDefs>
					<v:ud v:nameU="visVersion" v:val="VT0(12):26"/>
				</v:userDefs>
				<rect x="0" y="789.121" width="28.1973" height="52.7692" class="st8"/>
			</g>
		</g>
		<g id="shape160-363" v:mID="160" v:groupContext="shape" transform="translate(586.581,-268.331)">
			<title>Sheet.160</title>
			<path d="M57.6 773.32 L57.5 773.38 A102.672 102.672 -180 0 0 13.99 733.54 L18.55 724.11 L0 738.42 L0.32 761.84 L4.88
						 752.41 A81.7206 81.7206 0 0 1 40.11 785.13 L40.18 785.09 A81.7206 81.7206 0 0 1 50.18 830.67 L39.73 829.9
						 L59.86 841.89 L81.52 832.98 L71.08 832.21 A102.672 102.672 -180 0 0 57.6 773.32 Z" class="st7"/>
		</g>
		<g id="shape161-365" v:mID="161" v:groupContext="shape" transform="translate(722.835,-496.063)">
			<title>Sheet.161</title>
			<rect x="0" y="501.732" width="340.157" height="340.157" class="st6"/>
		</g>
		<g id="shape162-367" v:mID="162" v:groupContext="shape" transform="translate(1562.53,-26.173) rotate(75)">
			<title>Sheet.162</title>
			<path d="M8.28 841.89 L30.89 841.89 L30.89 662.48 L39.17 652.69 L30.89 652.69 L30.89 638.79 L8.28 638.79 L8.28 652.69
						 L0 652.69 L8.28 662.48 L8.28 841.89 Z" class="st5"/>
		</g>
		<g id="shape163-369" v:mID="163" v:groupContext="shape" transform="translate(519.629,-586.893) rotate(-15)">
			<title>Rectangle</title>
			<v:userDefs>
				<v:ud v:nameU="visVersion" v:val="VT0(12):26"/>
			</v:userDefs>
			<rect x="0" y="820.469" width="28.1973" height="21.4212" class="st8"/>
		</g>
		<g id="group164-372" transform="translate(1758.42,-86.1077) rotate(75)" v:mID="164" v:groupContext="group">
			<title>Sheet.164</title>
			<g id="shape165-373" v:mID="165" v:groupContext="shape">
				<title>Sheet.165</title>
				<path d="M0 816.38 A25.5118 25.5118 -180 1 0 51.02 816.38 L50.96 816.38 L25.51 741.47 L0.06 816.38 L0 816.38 Z"
						class="st9"/>
			</g>
			<g id="shape166-375" v:mID="166" v:groupContext="shape" transform="translate(7.59926,-7.1142)">
				<title>Sheet.166</title>
				<path d="M0 823.98 A17.9125 17.9125 -180 1 0 35.83 823.98 L35.78 823.98 L17.91 771.38 L0.05 823.98 L0 823.98 Z"
						class="st10"/>
			</g>
			<g id="shape167-377" v:mID="167" v:groupContext="shape" transform="translate(13.0273,-12.4845)">
				<title>Sheet.167</title>
				<path d="M0 829.41 A12.4845 12.4845 -180 1 0 24.97 829.41 L24.94 829.41 L12.48 792.75 L0.03 829.41 L0 829.41 Z"
						class="st11"/>
			</g>
		</g>
		<g id="shape168-379" v:mID="168" v:groupContext="shape" transform="translate(722.835,-141.732)">
			<title>Sheet.168</title>
			<rect x="0" y="501.732" width="340.157" height="340.157" class="st6"/>
		</g>
		<g id="shape169-381" v:mID="169" v:groupContext="shape" transform="translate(722.835,-303.811)">
			<title>Sheet.169</title>
			<desc>STOP</desc>
			<v:textBlock v:margins="rect(4,4,4,4)" v:tabSpace="42.5197"/>
			<v:textRect cx="170.079" cy="833.89" width="340.16" height="16"/>
			<rect x="0" y="825.89" width="340.157" height="16" class="st12"/>
			<text x="47.56" y="860.89" class="st13" v:langID="2057"><v:paragraph v:horizAlign="1"/><v:tabList/>STOP</text>		</g>
	</g>
</svg>
